<svg width="201" height="96" viewBox="0 0 201 96" fill="none" xmlns="http://www.w3.org/2000/svg">
<path d="M101.319 30.3411H102.33C102.737 30.3411 103.074 30.2877 103.342 30.181C103.609 30.0636 103.84 29.8822 104.032 29.6367L110.438 21.5528C110.706 21.2113 110.984 20.9765 111.273 20.8484C111.573 20.7097 111.947 20.6403 112.397 20.6403H116.122L108.303 30.261C108.057 30.5598 107.821 30.8106 107.596 31.0134C107.372 31.2162 107.131 31.3816 106.874 31.5096C107.227 31.6377 107.543 31.8191 107.821 32.0539C108.11 32.2887 108.388 32.5875 108.656 32.9503L116.716 43.7876H112.895C112.381 43.7876 111.996 43.7183 111.739 43.5795C111.492 43.4301 111.284 43.2167 111.113 42.9392L104.546 34.391C104.332 34.1136 104.091 33.9161 103.823 33.7987C103.556 33.6707 103.176 33.6067 102.684 33.6067H101.319V43.7876H97V20.6243H101.319V30.3411Z" fill="white"/>
<path d="M125.394 27.1075C126.625 27.1075 127.738 27.3049 128.733 27.6998C129.739 28.0946 130.596 28.6549 131.302 29.3806C132.009 30.1063 132.554 30.992 132.94 32.0379C133.325 33.0837 133.518 34.2523 133.518 35.5436C133.518 36.8456 133.325 38.0195 132.94 39.0653C132.554 40.1112 132.009 41.0023 131.302 41.7386C130.596 42.475 129.739 43.0406 128.733 43.4355C127.738 43.8303 126.625 44.0277 125.394 44.0277C124.163 44.0277 123.044 43.8303 122.038 43.4355C121.032 43.0406 120.171 42.475 119.453 41.7386C118.747 41.0023 118.196 40.1112 117.8 39.0653C117.414 38.0195 117.222 36.8456 117.222 35.5436C117.222 34.2523 117.414 33.0837 117.8 32.0379C118.196 30.992 118.747 30.1063 119.453 29.3806C120.171 28.6549 121.032 28.0946 122.038 27.6998C123.044 27.3049 124.163 27.1075 125.394 27.1075ZM125.394 40.9863C126.764 40.9863 127.775 40.5274 128.428 39.6096C129.092 38.6918 129.424 37.3471 129.424 35.5756C129.424 33.8041 129.092 32.4541 128.428 31.5256C127.775 30.5972 126.764 30.133 125.394 30.133C124.002 30.133 122.975 30.6025 122.311 31.5416C121.648 32.4701 121.316 33.8148 121.316 35.5756C121.316 37.3365 121.648 38.6811 122.311 39.6096C122.975 40.5274 124.002 40.9863 125.394 40.9863Z" fill="white"/>
<path d="M149.52 43.7876H147.738C147.364 43.7876 147.069 43.7343 146.855 43.6276C146.641 43.5102 146.48 43.2807 146.373 42.9392L146.02 41.7706C145.603 42.1442 145.191 42.475 144.784 42.7631C144.388 43.0406 143.976 43.2754 143.548 43.4675C143.12 43.6596 142.665 43.8036 142.183 43.8997C141.701 43.9957 141.166 44.0438 140.578 44.0438C139.882 44.0438 139.24 43.953 138.651 43.7716C138.062 43.5795 137.554 43.2967 137.126 42.9232C136.708 42.5497 136.382 42.0855 136.146 41.5305C135.911 40.9756 135.793 40.3299 135.793 39.5936C135.793 38.9746 135.954 38.3663 136.275 37.7687C136.607 37.1604 137.152 36.6161 137.912 36.1359C138.672 35.645 139.684 35.2394 140.947 34.9193C142.21 34.5991 143.778 34.4177 145.651 34.375V33.4146C145.651 32.3154 145.416 31.5043 144.945 30.9814C144.484 30.4478 143.81 30.181 142.922 30.181C142.279 30.181 141.744 30.2557 141.316 30.4051C140.888 30.5545 140.513 30.7252 140.192 30.9173C139.882 31.0988 139.593 31.2642 139.325 31.4136C139.058 31.563 138.763 31.6377 138.442 31.6377C138.175 31.6377 137.944 31.5683 137.752 31.4296C137.559 31.2909 137.404 31.1201 137.286 30.9173L136.564 29.6527C138.458 27.9239 140.743 27.0595 143.419 27.0595C144.383 27.0595 145.239 27.2195 145.988 27.5397C146.748 27.8492 147.39 28.2867 147.915 28.8523C148.439 29.4073 148.835 30.0743 149.103 30.8533C149.381 31.6324 149.52 32.4861 149.52 33.4146V43.7876ZM141.814 41.3224C142.221 41.3224 142.595 41.2851 142.938 41.2104C143.28 41.1357 143.601 41.0236 143.901 40.8742C144.211 40.7248 144.506 40.5434 144.784 40.3299C145.073 40.1058 145.362 39.8444 145.651 39.5456V36.7762C144.495 36.8296 143.526 36.9309 142.745 37.0804C141.974 37.2191 141.354 37.4005 140.883 37.6246C140.412 37.8487 140.074 38.1102 139.871 38.409C139.678 38.7078 139.582 39.0333 139.582 39.3855C139.582 40.0791 139.785 40.5754 140.192 40.8742C140.61 41.173 141.15 41.3224 141.814 41.3224Z" fill="white"/>
<path d="M157.642 20V43.7876H153.677V20H157.642Z" fill="white"/>
<path d="M175.046 43.7876H173.263C172.889 43.7876 172.594 43.7343 172.38 43.6276C172.166 43.5102 172.006 43.2807 171.899 42.9392L171.546 41.7706C171.128 42.1442 170.716 42.475 170.309 42.7631C169.913 43.0406 169.501 43.2754 169.073 43.4675C168.645 43.6596 168.19 43.8036 167.708 43.8997C167.227 43.9957 166.691 44.0438 166.103 44.0438C165.407 44.0438 164.765 43.953 164.176 43.7716C163.587 43.5795 163.079 43.2967 162.651 42.9232C162.233 42.5497 161.907 42.0855 161.672 41.5305C161.436 40.9756 161.318 40.3299 161.318 39.5936C161.318 38.9746 161.479 38.3663 161.8 37.7687C162.132 37.1604 162.678 36.6161 163.438 36.1359C164.198 35.645 165.209 35.2394 166.472 34.9193C167.735 34.5991 169.303 34.4177 171.176 34.375V33.4146C171.176 32.3154 170.941 31.5043 170.47 30.9814C170.01 30.4478 169.335 30.181 168.447 30.181C167.805 30.181 167.269 30.2557 166.841 30.4051C166.413 30.5545 166.039 30.7252 165.717 30.9173C165.407 31.0988 165.118 31.2642 164.85 31.4136C164.583 31.563 164.289 31.6377 163.967 31.6377C163.7 31.6377 163.47 31.5683 163.277 31.4296C163.084 31.2909 162.929 31.1201 162.811 30.9173L162.089 29.6527C163.984 27.9239 166.269 27.0595 168.945 27.0595C169.908 27.0595 170.764 27.2195 171.513 27.5397C172.273 27.8492 172.916 28.2867 173.44 28.8523C173.964 29.4073 174.361 30.0743 174.628 30.8533C174.906 31.6324 175.046 32.4861 175.046 33.4146V43.7876ZM167.339 41.3224C167.746 41.3224 168.12 41.2851 168.463 41.2104C168.805 41.1357 169.127 41.0236 169.426 40.8742C169.737 40.7248 170.031 40.5434 170.309 40.3299C170.598 40.1058 170.887 39.8444 171.176 39.5456V36.7762C170.02 36.8296 169.052 36.9309 168.27 37.0804C167.5 37.2191 166.879 37.4005 166.408 37.6246C165.937 37.8487 165.6 38.1102 165.396 38.409C165.204 38.7078 165.107 39.0333 165.107 39.3855C165.107 40.0791 165.311 40.5754 165.717 40.8742C166.135 41.173 166.675 41.3224 167.339 41.3224Z" fill="white"/>
<path d="M111.642 51.5966V55.0222H101.351V61.8736H110.037V65.3153H101.351V74.7439H97V51.5966H111.642Z" fill="white"/>
<path d="M119.028 58.3198V74.7439H115.063V58.3198H119.028ZM119.623 53.5335C119.623 53.875 119.553 54.1952 119.414 54.494C119.275 54.7928 119.087 55.0542 118.852 55.2784C118.627 55.5025 118.36 55.6839 118.049 55.8226C117.739 55.9507 117.407 56.0147 117.054 56.0147C116.711 56.0147 116.385 55.9507 116.074 55.8226C115.775 55.6839 115.512 55.5025 115.288 55.2784C115.063 55.0542 114.881 54.7928 114.742 54.494C114.613 54.1952 114.549 53.875 114.549 53.5335C114.549 53.1813 114.613 52.8505 114.742 52.541C114.881 52.2315 115.063 51.9647 115.288 51.7406C115.512 51.5165 115.775 51.3404 116.074 51.2124C116.385 51.0736 116.711 51.0043 117.054 51.0043C117.407 51.0043 117.739 51.0736 118.049 51.2124C118.36 51.3404 118.627 51.5165 118.852 51.7406C119.087 51.9647 119.275 52.2315 119.414 52.541C119.553 52.8505 119.623 53.1813 119.623 53.5335Z" fill="white"/>
<path d="M123.523 74.7439V58.3198H125.948C126.462 58.3198 126.799 58.56 126.959 59.0402L127.232 60.3368C127.564 59.9953 127.912 59.6858 128.276 59.4084C128.65 59.1309 129.041 58.8908 129.448 58.688C129.865 58.4853 130.309 58.3305 130.78 58.2238C131.251 58.1171 131.765 58.0637 132.322 58.0637C133.221 58.0637 134.018 58.2185 134.714 58.5279C135.41 58.8268 135.988 59.2536 136.448 59.8086C136.919 60.3528 137.272 61.0092 137.507 61.7775C137.754 62.5352 137.877 63.373 137.877 64.2908V74.7439H133.911V64.2908C133.911 63.2876 133.676 62.5139 133.205 61.9696C132.744 61.4147 132.049 61.1372 131.118 61.1372C130.433 61.1372 129.79 61.292 129.191 61.6014C128.592 61.9109 128.024 62.3325 127.489 62.8661V74.7439H123.523Z" fill="white"/>
<path d="M147.184 75C145.761 75 144.664 74.5998 143.893 73.7994C143.122 72.9883 142.737 71.8731 142.737 70.4538V61.2813H141.067C140.853 61.2813 140.666 61.2119 140.505 61.0732C140.355 60.9345 140.281 60.7264 140.281 60.4489V58.8801L142.93 58.4479L143.764 53.9657C143.807 53.7523 143.904 53.5869 144.053 53.4695C144.214 53.3521 144.412 53.2934 144.648 53.2934H146.703V58.4639H151.038V61.2813H146.703V70.1816C146.703 70.6939 146.831 71.0941 147.088 71.3822C147.345 71.6704 147.687 71.8144 148.115 71.8144C148.362 71.8144 148.565 71.7878 148.726 71.7344C148.897 71.6704 149.041 71.6063 149.159 71.5423C149.287 71.4783 149.4 71.4196 149.496 71.3662C149.593 71.3022 149.689 71.2702 149.785 71.2702C149.903 71.2702 149.999 71.3022 150.074 71.3662C150.149 71.4196 150.229 71.505 150.315 71.6223L151.503 73.5433C150.925 74.0235 150.262 74.3864 149.512 74.6318C148.763 74.8773 147.987 75 147.184 75Z" fill="white"/>
<path d="M160.999 58.0637C162.037 58.0637 162.99 58.2291 163.857 58.56C164.734 58.8908 165.489 59.3764 166.12 60.0167C166.752 60.6463 167.244 61.4254 167.597 62.3538C167.951 63.2716 168.127 64.3228 168.127 65.5074C168.127 65.8062 168.111 66.057 168.079 66.2597C168.058 66.4518 168.01 66.6066 167.935 66.7239C167.87 66.8307 167.779 66.9107 167.662 66.9641C167.544 67.0068 167.394 67.0281 167.212 67.0281H157.033C157.151 68.7143 157.606 69.9522 158.398 70.7419C159.19 71.5316 160.239 71.9265 161.545 71.9265C162.187 71.9265 162.738 71.8518 163.198 71.7024C163.669 71.553 164.076 71.3876 164.419 71.2061C164.772 71.0247 165.077 70.8593 165.334 70.7099C165.601 70.5605 165.858 70.4858 166.104 70.4858C166.265 70.4858 166.404 70.5178 166.522 70.5818C166.639 70.6459 166.741 70.7366 166.827 70.854L167.983 72.2947C167.544 72.8069 167.052 73.2391 166.506 73.5913C165.96 73.9328 165.387 74.2103 164.788 74.4237C164.199 74.6265 163.594 74.7705 162.974 74.8559C162.363 74.9413 161.769 74.984 161.191 74.984C160.046 74.984 158.981 74.7972 157.996 74.4237C157.012 74.0395 156.155 73.4793 155.428 72.7429C154.7 71.9959 154.127 71.0781 153.71 69.9895C153.292 68.8903 153.084 67.6204 153.084 66.1797C153.084 65.0591 153.265 64.008 153.629 63.0261C153.993 62.0337 154.512 61.1746 155.187 60.4489C155.872 59.7125 156.701 59.1309 157.675 58.704C158.66 58.2772 159.768 58.0637 160.999 58.0637ZM161.079 60.8971C159.923 60.8971 159.019 61.2226 158.366 61.8736C157.713 62.5246 157.295 63.4477 157.113 64.6429H164.563C164.563 64.1307 164.493 63.6504 164.354 63.2022C164.215 62.7433 164.001 62.3431 163.712 62.0016C163.423 61.6601 163.059 61.3933 162.62 61.2013C162.181 60.9985 161.668 60.8971 161.079 60.8971Z" fill="white"/>
<path d="M182.92 61.7935C182.802 61.9429 182.684 62.0603 182.567 62.1457C182.46 62.2311 182.299 62.2738 182.085 62.2738C181.882 62.2738 181.684 62.2151 181.491 62.0977C181.298 61.9696 181.068 61.8309 180.801 61.6815C180.533 61.5214 180.212 61.3827 179.837 61.2653C179.473 61.1372 179.018 61.0732 178.473 61.0732C177.777 61.0732 177.167 61.2013 176.642 61.4574C176.118 61.7028 175.679 62.0603 175.326 62.5299C174.983 62.9995 174.726 63.5704 174.555 64.2427C174.384 64.9044 174.298 65.6568 174.298 66.4998C174.298 67.3749 174.389 68.154 174.571 68.837C174.764 69.52 175.037 70.0963 175.39 70.5658C175.743 71.0247 176.171 71.3769 176.674 71.6223C177.177 71.8571 177.745 71.9745 178.376 71.9745C179.008 71.9745 179.516 71.8998 179.901 71.7504C180.298 71.5903 180.629 71.4196 180.897 71.2382C181.164 71.0461 181.395 70.8753 181.587 70.7259C181.791 70.5658 182.015 70.4858 182.262 70.4858C182.583 70.4858 182.824 70.6085 182.984 70.854L184.124 72.2947C183.685 72.8069 183.209 73.2391 182.695 73.5913C182.181 73.9328 181.646 74.2103 181.09 74.4237C180.544 74.6265 179.976 74.7705 179.388 74.8559C178.799 74.9413 178.216 74.984 177.638 74.984C176.621 74.984 175.663 74.7972 174.764 74.4237C173.865 74.0395 173.078 73.4846 172.404 72.7589C171.74 72.0332 171.21 71.1474 170.814 70.1016C170.429 69.0451 170.236 67.8445 170.236 66.4998C170.236 65.2939 170.408 64.1787 170.75 63.1542C171.103 62.119 171.617 61.2279 172.291 60.4809C172.966 59.7232 173.8 59.1309 174.796 58.704C175.791 58.2772 176.937 58.0637 178.232 58.0637C179.463 58.0637 180.538 58.2611 181.459 58.656C182.39 59.0509 183.225 59.6165 183.963 60.3528L182.92 61.7935Z" fill="white"/>
<path d="M186.647 74.7439V50.9562H190.612V60.0967C191.254 59.4884 191.961 58.9975 192.732 58.624C193.502 58.2505 194.407 58.0637 195.445 58.0637C196.344 58.0637 197.141 58.2185 197.837 58.5279C198.533 58.8268 199.111 59.2536 199.571 59.8086C200.042 60.3528 200.395 61.0092 200.631 61.7775C200.877 62.5352 201 63.373 201 64.2908V74.7439H197.034V64.2908C197.034 63.2876 196.799 62.5139 196.328 61.9696C195.868 61.4147 195.172 61.1372 194.241 61.1372C193.556 61.1372 192.914 61.292 192.314 61.6014C191.715 61.9109 191.147 62.3325 190.612 62.8661V74.7439H186.647Z" fill="white"/>
<path d="M75.7309 17.9457C76.3268 17.8708 76.8174 17.8308 77.3031 17.7459C79.5412 17.3514 81.7792 16.9419 84.0173 16.5373C84.1725 16.5074 84.3277 16.4924 84.4829 16.4774C85.234 16.4275 85.6395 16.6722 85.8198 17.4113C85.9449 17.9357 85.995 18.4851 86 19.0244C86 19.7536 85.8999 20.4827 85.8898 21.2119C85.8798 21.9161 85.5143 22.3705 84.9786 22.7401C83.8721 23.4992 82.6104 23.9237 81.3436 24.2933C78.8652 25.0224 76.3718 25.7016 73.8834 26.4008C73.8684 26.4008 73.8534 26.4108 73.8383 26.4108C72.6067 26.6955 71.7054 27.3697 71.0345 28.4634C68.6262 32.4038 66.1678 36.3092 63.7245 40.2347C63.6844 40.2996 63.6544 40.3695 63.5993 40.4794C63.7345 40.5343 63.8547 40.5942 63.9798 40.6342C65.8073 41.2185 66.7436 42.7168 66.5233 44.6145C66.308 46.4923 65.582 48.1854 64.6808 49.8085C62.9835 52.8549 60.8055 55.5118 58.0417 57.6693C56.3143 59.0177 54.4368 60.1064 52.2337 60.4011C50.7267 60.6009 49.1896 60.6258 47.6675 60.6808C46.4909 60.7207 45.3092 60.6908 44.1326 60.6908C44.0876 60.7607 44.0475 60.8356 44.0025 60.9055C44.1226 60.9655 44.2678 61.0004 44.363 61.0903C45.099 61.7795 45.845 62.4637 46.5459 63.1879C46.7963 63.4475 46.9665 63.3377 47.1868 63.2278C49.6051 62.0342 52.0885 60.9954 54.6821 60.2363C56.2392 59.7818 57.8164 59.4372 59.4536 59.4073C61.6466 59.3723 63.2238 60.4461 64.4154 62.1541C65.6321 63.907 66.0777 65.9197 66.1278 68.0222C66.2479 72.9315 64.5356 77.2365 61.7017 81.1619C59.8241 83.7588 57.4759 85.8863 54.9274 87.7991C50.7868 90.9105 46.1804 93.048 41.1235 94.1767C37.3734 95.0107 33.5732 95.2155 29.7429 94.771C23.5745 94.0518 17.8667 92.0092 12.6195 88.733C8.22845 85.9912 5.0491 82.1857 3.08641 77.3813C1.15376 72.6468 0.688122 67.7226 1.1838 62.6884C1.8397 56.0462 3.99766 49.9084 7.67269 44.3199C9.1397 42.0875 10.8721 40.0748 12.9249 38.3469C13.1202 38.1821 13.3555 37.8375 13.6258 38.1421C13.9062 38.4567 13.5257 38.6215 13.3254 38.7913C10.7219 41.0038 8.66405 43.6607 6.96672 46.6072C4.30307 51.2318 2.62077 56.196 1.92482 61.4798C1.28394 66.3492 1.53929 71.1585 3.1515 75.8381C4.50335 79.7535 6.70637 83.1096 9.81563 85.8664C12.5994 88.3385 15.8489 90.0215 19.2686 91.4249C22.1475 92.6085 25.1166 93.4725 28.1858 93.9619C31.1198 94.4314 34.0739 94.5163 37.0379 94.2116C42.5755 93.6423 47.6775 91.8194 52.3589 88.8279C55.4732 86.8352 58.297 84.498 60.6052 81.5964C63.5142 77.9356 65.3417 73.8204 65.542 69.1059C65.6371 66.9085 65.3066 64.761 64.12 62.8333C62.8433 60.7607 61.0358 59.7569 58.5574 60.0465C55.9138 60.3562 53.4254 61.1952 50.987 62.189C49.8505 62.6535 48.7389 63.1829 47.6174 63.6873C47.4622 63.7572 47.322 63.8471 47.1518 63.942C47.282 64.2167 47.4121 64.4614 47.5123 64.7161C47.9128 65.7399 47.8878 66.7587 47.4121 67.7475C46.0953 70.4743 44.2127 72.7767 42.0147 74.8343C40.7931 75.9779 39.4763 76.9867 37.834 77.4911C36.377 77.9356 34.94 77.4512 34.1339 76.1677C33.5531 75.2488 33.6683 74.2999 34.0939 73.361C34.6046 72.2373 35.4007 71.3234 36.2769 70.4793C38.9856 67.8574 42.1649 65.8997 45.4595 64.1168C45.6898 63.9919 45.9151 63.8671 46.2105 63.7072C45.87 63.3377 45.5946 62.9831 45.2592 62.6884C44.5632 62.0692 43.8472 61.4649 43.1112 60.8905C42.936 60.7507 42.6556 60.7008 42.4203 60.6908C39.8317 60.5659 37.2632 60.3262 34.7498 59.652C32.9173 59.1576 31.1649 58.4883 29.7229 57.1949C28.6014 56.186 27.9354 54.9325 27.8103 53.4243C27.6951 52.0609 28.4361 51.4316 29.798 51.7113C31.0497 51.971 32.2063 52.5003 33.2577 53.1895C35.4808 54.6478 37.6638 56.171 39.8468 57.6943C40.8932 58.4234 41.8946 59.2175 42.926 59.9666C43.0662 60.0665 43.2665 60.1264 43.4367 60.1264C46.0703 60.0715 48.6989 60.0265 51.3275 59.9217C53.0649 59.8517 54.6521 59.2225 56.089 58.2836C60.435 55.4469 63.5092 51.5614 65.3968 46.7521C65.7973 45.7382 66.0276 44.6745 65.9025 43.5608C65.7773 42.4321 64.5756 41.2385 63.4391 41.1586C63.3189 41.1486 63.1487 41.2535 63.0786 41.3534C62.8683 41.663 62.673 41.9826 62.5178 42.3222C61.7868 43.8904 60.485 44.7993 58.9379 45.4236C55.9889 46.6072 52.9547 46.777 49.8505 46.1927C48.5337 45.948 47.2018 45.7882 45.885 45.5684C45.4845 45.5035 45.2542 45.6084 45.0088 45.963C44.6233 46.5173 44.1627 47.0417 43.667 47.5012C43.1363 47.9956 42.5405 48.0256 42.0348 47.7159C41.5191 47.3963 41.0885 46.5323 41.1936 45.9929C41.2787 45.5285 41.5992 45.2138 42.0247 45.1389C42.8309 44.9991 43.652 44.9142 44.4681 44.8792C44.8536 44.8643 45.0889 44.7893 45.2742 44.4298C46.5159 42.0126 47.8778 39.6453 48.5887 36.9934C49.52 33.5075 50.0608 29.9667 49.9356 26.3509C49.8855 24.9076 49.4249 23.5491 48.8892 22.2107C48.6739 21.6663 48.4686 21.097 48.3835 20.5227C48.1932 19.1992 48.9643 17.7959 50.251 17.1466C52.3689 16.0829 54.4518 16.0929 56.3944 17.5761C57.1004 18.1155 57.5761 18.8596 57.9265 19.6637C58.4573 20.8923 58.6475 22.1907 58.6225 23.5292C58.5874 25.2821 57.6411 26.4508 56.1992 27.2398C55.1127 27.8341 53.9411 28.2886 52.8045 28.788C51.5778 29.3274 51.2924 29.7519 51.4226 31.0903C51.4877 31.7845 51.6129 32.4737 51.7631 33.1579C51.8082 33.3477 52.0134 33.5924 52.1937 33.6474C52.6944 33.7972 53.2201 33.8921 53.7408 33.932C53.876 33.942 54.0813 33.7073 54.1764 33.5425C55.7936 30.6708 57.3958 27.7892 59.003 24.9126C60.3749 22.4554 61.7468 19.9983 63.1287 17.5462C63.2588 17.3114 63.3139 17.1217 63.1687 16.862C61.4714 13.8455 58.9029 12.0326 55.4982 11.4932C52.5341 11.0238 49.7353 11.668 47.1117 13.0914C46.9315 13.1862 46.7612 13.2911 46.591 13.401C45.9351 13.8055 45.9451 13.7955 45.3243 13.3011C41.8345 10.5343 37.9241 8.7714 33.418 8.56165C30.7193 8.4368 28.1558 9.04609 25.7475 10.2647C25.3569 10.4594 25.1717 10.3795 24.9564 10.0399C24.3505 9.10601 23.8348 8.09719 22.9336 7.37803C20.34 5.30545 17.386 4.60627 14.1566 5.25052C9.92578 6.08954 6.87159 8.54167 4.86885 12.3173C3.83243 14.265 3.28167 16.3526 3.48195 18.56C3.77235 21.7363 5.36453 24.1335 8.13833 25.7216C8.54889 25.9563 9.03456 26.0812 9.50019 26.1761C10.1311 26.3059 10.6368 26.0462 10.9622 25.4919C11.518 24.543 11.563 23.4792 11.563 22.4205C11.563 22.3206 11.4328 22.1807 11.3277 22.1208C9.02955 20.7374 7.80287 17.4812 8.75417 14.6645C9.59032 12.1874 12.5494 10.3645 15.1529 10.7641C16.9404 11.0388 18.2322 11.9427 18.9281 13.6357C19.2335 14.3749 19.0933 15.0291 18.5876 15.6334C17.9768 16.3625 17.3309 17.0617 16.7802 17.8308C15.1579 20.0982 14.1516 22.6152 13.8962 25.407C13.5708 28.9528 13.8411 32.4288 15.183 35.7599C16.8152 39.8102 19.7342 42.532 23.8649 43.9303C27.0392 45.0041 30.3187 45.3737 33.6383 44.9442C37.2933 44.4747 40.4876 42.9365 43.1413 40.3495C43.3115 40.1847 43.5018 39.95 43.7121 40.1897C43.7922 40.2796 43.697 40.6392 43.5719 40.769C42.5405 41.8428 41.3338 42.6918 40.042 43.4309C36.2068 45.6184 32.0861 46.0579 27.7852 45.4586C25.6573 45.1589 23.6045 44.6295 21.6719 43.6756C18.4525 42.0825 16.1643 39.6154 14.7624 36.3242C13.3154 32.9282 12.975 29.3674 13.2603 25.7216C13.5608 21.926 15.0478 18.6449 17.6163 15.8431C17.6814 15.7732 17.7365 15.7033 17.7966 15.6284C18.6878 14.5946 18.6778 13.8555 17.7665 12.8067C16.4397 11.2935 14.2417 10.8939 12.299 11.7729C8.1183 13.6557 8.19841 18.8247 11.1775 21.2618C11.2476 21.3217 11.3177 21.4017 11.4028 21.4266C12.1939 21.6863 12.279 22.2956 12.1688 22.9898C12.0537 23.7239 12.0086 24.4831 11.7833 25.1822C11.3327 26.5806 10.2913 27.085 8.88435 26.6705C7.26213 26.1961 6.04045 25.1523 5.00904 23.8738C2.75095 21.072 2.33037 17.8908 3.34676 14.5447C4.78874 9.79022 7.88799 6.50905 12.6645 5.00581C16.2444 3.88212 19.6892 4.30662 22.8234 6.50406C23.7597 7.16329 24.4707 8.01229 25.0365 8.99614C25.1667 9.22587 25.3169 9.44063 25.4671 9.68035C25.5622 9.65038 25.6373 9.6354 25.7024 9.60543C30.4839 7.35306 35.2805 7.47292 40.0971 9.48058C42.1349 10.3296 44.0275 11.4333 45.7298 12.8417C45.9401 13.0115 46.0853 13.0065 46.3006 12.8716C48.4185 11.5881 50.7117 10.854 53.1951 10.7691C56.7149 10.6492 59.749 11.7629 62.1423 14.3948C62.7131 15.0191 63.1787 15.7383 63.7345 16.4674C63.8497 16.2627 63.9648 16.0679 64.075 15.8731C66.7286 11.2136 69.3973 6.55899 72.0309 1.88445C72.6617 0.760761 73.4178 0.825686 74.2088 1.42499C74.8147 1.87945 75.3955 2.39885 75.8711 2.98317C77.1479 4.55133 78.3796 6.15446 79.5812 7.78256C79.7665 8.03726 79.8165 8.52669 79.7114 8.83633C79.3008 10.0899 78.8702 11.3384 78.3345 12.542C77.6035 14.1901 76.7673 15.7882 75.9763 17.4113C75.9112 17.5462 75.8561 17.691 75.7409 17.9657L75.7309 17.9457ZM50.0007 42.3022C50.5865 42.3772 51.0521 42.482 51.5228 42.497C53.3603 42.552 55.1477 42.2373 56.9151 41.7429C58.4272 41.3184 59.9343 40.774 61.4814 40.6092C62.623 40.4844 63.1637 40.0099 63.7195 39.096C66.0977 35.1955 68.5661 31.345 70.9995 27.4746C71.39 26.8503 71.9407 26.4508 72.6167 26.201C72.9822 26.0662 73.3477 25.9264 73.7182 25.8215C76.1465 25.1373 78.5898 24.508 80.9981 23.7539C82.2248 23.3744 83.3914 22.8 84.563 22.2706C85.0637 22.0459 85.3091 21.5964 85.299 21.0171C85.294 20.6475 85.3641 20.273 85.3641 19.9034C85.3641 19.2042 85.3641 18.505 85.289 17.8158C85.2189 17.1616 84.9836 17.0068 84.3477 17.1117C83.1161 17.3114 81.8944 17.5412 80.6677 17.7459C79.0705 18.0156 77.4783 18.3003 75.8761 18.515C75.05 18.6249 74.8647 18.3203 75.2252 17.5661C75.9562 16.0379 76.7473 14.5397 77.4433 12.9915C78.0491 11.648 78.5698 10.2647 79.0805 8.88627C79.1757 8.63656 79.1506 8.22205 79.0004 8.01729C78.0191 6.65388 77.0227 5.30046 75.9562 4.00198C75.3304 3.23787 74.5994 2.54867 73.8484 1.90443C73.2626 1.40501 72.9671 1.50489 72.5916 2.15413C69.7878 7.06839 66.9839 11.9876 64.2001 16.9119C64.1 17.0917 64.115 17.3814 64.1751 17.5961C64.3453 18.1904 64.6107 18.7597 64.7609 19.359C65.532 22.4255 65.3267 25.422 63.8697 28.2487C61.9971 31.8744 59.028 34.0119 54.9224 34.4714C54.4618 34.5213 54.2165 34.6961 54.0062 35.0957C53.4204 36.2094 52.7895 37.2981 52.1737 38.4018C51.4777 39.6503 50.7868 40.8989 50.0107 42.2972L50.0007 42.3022ZM53.5656 34.6012C53.0499 34.4864 52.5742 34.4165 52.1186 34.2766C51.683 34.1418 51.2774 33.9071 51.1773 33.3976C51.0421 32.7134 50.8919 32.0243 50.8318 31.3301C50.6416 29.2125 51.2774 28.7331 52.6643 28.1688C53.7608 27.7243 54.8523 27.2548 55.8938 26.7055C57.2857 25.9663 58.1268 24.8277 58.0167 23.1696C57.9716 22.4904 57.9366 21.7962 57.7813 21.137C57.4909 19.8884 56.9452 18.7597 55.8938 17.9507C54.4318 16.827 52.8045 16.7671 51.1523 17.3764C49.6602 17.9257 48.3384 19.364 49.2697 21.5215C49.3298 21.6663 49.3999 21.8062 49.4449 21.951C49.7503 22.9099 50.1058 23.8588 50.3361 24.8426C50.7517 26.6206 50.5915 28.4284 50.4162 30.2263C50.0157 34.3066 49.2296 38.2769 47.2419 41.9327C46.7162 42.8965 46.2505 43.8954 45.7398 44.9092C45.9151 44.9392 46.0653 44.9691 46.2155 44.9941C47.5824 45.2138 48.9542 45.4236 50.3211 45.6483C53.4254 46.1627 56.4295 45.913 59.3184 44.5896C60.8756 43.8754 61.8119 42.6468 62.4577 41.0737C62.1774 41.0986 61.922 41.0837 61.6867 41.1436C60.445 41.4432 59.2033 41.7229 57.9766 42.0775C56.1591 42.5969 54.3316 43.0714 52.434 43.0913C51.6479 43.1013 50.8468 43.0364 50.0808 42.8716C49.4099 42.7267 49.3047 42.3172 49.6352 41.7129C50.8669 39.4955 52.0986 37.2831 53.3302 35.0707C53.4104 34.9259 53.4855 34.776 53.5706 34.6062L53.5656 34.6012ZM46.556 64.2466C46.3757 64.3365 46.2305 64.3914 46.0953 64.4714C44.4331 65.4502 42.7407 66.3841 41.1185 67.4279C39.2409 68.6315 37.4835 69.9949 35.9865 71.668C35.3406 72.3871 34.7848 73.1662 34.4494 74.0951C33.8536 75.7482 35.5759 77.2215 36.8927 77.0667C37.834 76.9568 38.6601 76.5872 39.4362 76.0928C41.1886 74.9741 42.6206 73.5058 43.9374 71.9227C45.0639 70.5692 46.0903 69.1409 46.8363 67.5378C47.3571 66.4191 47.2519 65.3403 46.556 64.2566V64.2466ZM54.6721 33.9021C58.3271 33.5075 61.0308 31.7945 62.8583 28.788C64.9462 25.357 65.0363 21.7363 63.7095 18.0406C63.6594 18.0256 63.6093 18.0156 63.5643 18.0006C60.6202 23.2645 57.6762 28.5333 54.6771 33.9021H54.6721ZM41.8095 60.0765L41.8495 59.9566C41.7093 59.8468 41.5691 59.7319 41.4289 59.622C40.2223 58.7181 39.0206 57.8041 37.804 56.9152C35.6911 55.372 33.5632 53.8538 31.1499 52.805C30.549 52.5403 29.8831 52.3855 29.2272 52.2906C28.6464 52.2107 28.361 52.5353 28.3861 53.1296C28.4261 54.1284 28.7315 55.0474 29.3324 55.8564C30.3838 57.2798 31.8809 58.0538 33.4931 58.6332C35.3356 59.2974 37.2482 59.622 39.1859 59.8368C40.0571 59.9317 40.9333 59.9916 41.8044 60.0715L41.8095 60.0765ZM44.5933 45.6483C44.5532 45.5684 44.5132 45.4885 44.4731 45.4086C43.8022 45.4735 43.1263 45.4985 42.4654 45.6234C42.22 45.6683 41.8095 45.9929 41.8395 46.1078C41.9296 46.4874 42.1249 46.8869 42.3953 47.1616C42.5154 47.2864 43.0061 47.2315 43.1813 47.0817C43.692 46.6522 44.1276 46.1328 44.5983 45.6483H44.5933Z" fill="white" stroke="url(#paint0_linear_420_5217)" stroke-miterlimit="10"/>
<defs>
<linearGradient id="paint0_linear_420_5217" x1="71.096" y1="-4.24387" x2="-29.2332" y2="120.11" gradientUnits="userSpaceOnUse">
<stop stop-color="#5FC7F9"/>
<stop offset="0.00895537" stop-color="#473BF0"/>
<stop offset="0.427083" stop-color="#6FEDB7"/>
<stop offset="0.90625" stop-color="#FDFF92"/>
</linearGradient>
</defs>
</svg>
