<svg width="87" height="96" viewBox="0 0 87 96" fill="none" xmlns="http://www.w3.org/2000/svg">
<path d="M75.7309 17.9457C76.3268 17.8708 76.8174 17.8308 77.3031 17.7459C79.5412 17.3514 81.7792 16.9419 84.0173 16.5373C84.1725 16.5074 84.3277 16.4924 84.4829 16.4774C85.234 16.4275 85.6395 16.6722 85.8198 17.4113C85.9449 17.9357 85.995 18.4851 86 19.0244C86 19.7536 85.8999 20.4827 85.8898 21.2119C85.8798 21.9161 85.5143 22.3705 84.9786 22.7401C83.8721 23.4992 82.6104 23.9237 81.3436 24.2933C78.8652 25.0224 76.3718 25.7016 73.8834 26.4008C73.8684 26.4008 73.8534 26.4108 73.8383 26.4108C72.6067 26.6955 71.7054 27.3697 71.0345 28.4634C68.6262 32.4038 66.1678 36.3092 63.7245 40.2347C63.6844 40.2996 63.6544 40.3695 63.5993 40.4794C63.7345 40.5343 63.8547 40.5942 63.9798 40.6342C65.8073 41.2185 66.7436 42.7168 66.5233 44.6145C66.308 46.4923 65.582 48.1854 64.6808 49.8085C62.9835 52.8549 60.8055 55.5118 58.0417 57.6693C56.3143 59.0177 54.4368 60.1064 52.2337 60.4011C50.7267 60.6009 49.1896 60.6258 47.6675 60.6808C46.4909 60.7207 45.3092 60.6908 44.1326 60.6908C44.0876 60.7607 44.0475 60.8356 44.0025 60.9055C44.1226 60.9655 44.2678 61.0004 44.363 61.0903C45.099 61.7795 45.845 62.4637 46.5459 63.1879C46.7963 63.4475 46.9665 63.3377 47.1868 63.2278C49.6051 62.0342 52.0885 60.9954 54.6821 60.2363C56.2392 59.7818 57.8164 59.4372 59.4536 59.4073C61.6466 59.3723 63.2238 60.4461 64.4154 62.1541C65.6321 63.907 66.0777 65.9197 66.1278 68.0222C66.2479 72.9315 64.5356 77.2365 61.7017 81.1619C59.8241 83.7588 57.4759 85.8863 54.9274 87.7991C50.7868 90.9105 46.1804 93.048 41.1235 94.1767C37.3734 95.0107 33.5732 95.2155 29.7429 94.771C23.5745 94.0518 17.8667 92.0092 12.6195 88.733C8.22845 85.9912 5.0491 82.1857 3.08641 77.3813C1.15376 72.6468 0.688122 67.7226 1.1838 62.6884C1.8397 56.0462 3.99766 49.9084 7.67269 44.3199C9.1397 42.0875 10.8721 40.0748 12.9249 38.3469C13.1202 38.1821 13.3555 37.8375 13.6258 38.1421C13.9062 38.4567 13.5257 38.6215 13.3254 38.7913C10.7219 41.0038 8.66405 43.6607 6.96672 46.6072C4.30307 51.2318 2.62077 56.196 1.92482 61.4798C1.28394 66.3492 1.53929 71.1585 3.1515 75.8381C4.50335 79.7535 6.70637 83.1096 9.81563 85.8664C12.5994 88.3385 15.8489 90.0215 19.2686 91.4249C22.1475 92.6085 25.1166 93.4725 28.1858 93.9619C31.1198 94.4314 34.0739 94.5163 37.0379 94.2116C42.5755 93.6423 47.6775 91.8194 52.3589 88.8279C55.4732 86.8352 58.297 84.498 60.6052 81.5964C63.5142 77.9356 65.3417 73.8204 65.542 69.1059C65.6371 66.9085 65.3066 64.761 64.12 62.8333C62.8433 60.7607 61.0358 59.7569 58.5574 60.0465C55.9138 60.3562 53.4254 61.1952 50.987 62.189C49.8505 62.6535 48.7389 63.1829 47.6174 63.6873C47.4622 63.7572 47.322 63.8471 47.1518 63.942C47.282 64.2167 47.4121 64.4614 47.5123 64.7161C47.9128 65.7399 47.8878 66.7587 47.4121 67.7475C46.0953 70.4743 44.2127 72.7767 42.0147 74.8343C40.7931 75.9779 39.4763 76.9867 37.834 77.4911C36.377 77.9356 34.94 77.4512 34.1339 76.1677C33.5531 75.2488 33.6683 74.2999 34.0939 73.361C34.6046 72.2373 35.4007 71.3234 36.2769 70.4793C38.9856 67.8574 42.1649 65.8997 45.4595 64.1168C45.6898 63.9919 45.9151 63.8671 46.2105 63.7072C45.87 63.3377 45.5946 62.9831 45.2592 62.6884C44.5632 62.0692 43.8472 61.4649 43.1112 60.8905C42.936 60.7507 42.6556 60.7008 42.4203 60.6908C39.8317 60.5659 37.2632 60.3262 34.7498 59.652C32.9173 59.1576 31.1649 58.4883 29.7229 57.1949C28.6014 56.186 27.9354 54.9325 27.8103 53.4243C27.6951 52.0609 28.4361 51.4316 29.798 51.7113C31.0497 51.971 32.2063 52.5003 33.2577 53.1895C35.4808 54.6478 37.6638 56.171 39.8468 57.6943C40.8932 58.4234 41.8946 59.2175 42.926 59.9666C43.0662 60.0665 43.2665 60.1264 43.4367 60.1264C46.0703 60.0715 48.6989 60.0265 51.3275 59.9217C53.0649 59.8517 54.6521 59.2225 56.089 58.2836C60.435 55.4469 63.5092 51.5614 65.3968 46.7521C65.7973 45.7382 66.0276 44.6745 65.9025 43.5608C65.7773 42.4321 64.5756 41.2385 63.4391 41.1586C63.3189 41.1486 63.1487 41.2535 63.0786 41.3534C62.8683 41.663 62.673 41.9826 62.5178 42.3222C61.7868 43.8904 60.485 44.7993 58.9379 45.4236C55.9889 46.6072 52.9547 46.777 49.8505 46.1927C48.5337 45.948 47.2018 45.7882 45.885 45.5684C45.4845 45.5035 45.2542 45.6084 45.0088 45.963C44.6233 46.5173 44.1627 47.0417 43.667 47.5012C43.1363 47.9956 42.5405 48.0256 42.0348 47.7159C41.5191 47.3963 41.0885 46.5323 41.1936 45.9929C41.2787 45.5285 41.5992 45.2138 42.0247 45.1389C42.8309 44.9991 43.652 44.9142 44.4681 44.8792C44.8536 44.8643 45.0889 44.7893 45.2742 44.4298C46.5159 42.0126 47.8778 39.6453 48.5887 36.9934C49.52 33.5075 50.0608 29.9667 49.9356 26.3509C49.8855 24.9076 49.4249 23.5491 48.8892 22.2107C48.6739 21.6663 48.4686 21.097 48.3835 20.5227C48.1932 19.1992 48.9643 17.7959 50.251 17.1466C52.3689 16.0829 54.4518 16.0929 56.3944 17.5761C57.1004 18.1155 57.5761 18.8596 57.9265 19.6637C58.4573 20.8923 58.6475 22.1907 58.6225 23.5292C58.5874 25.2821 57.6411 26.4508 56.1992 27.2398C55.1127 27.8341 53.9411 28.2886 52.8045 28.788C51.5778 29.3274 51.2924 29.7519 51.4226 31.0903C51.4877 31.7845 51.6129 32.4737 51.7631 33.1579C51.8082 33.3477 52.0134 33.5924 52.1937 33.6474C52.6944 33.7972 53.2201 33.8921 53.7408 33.932C53.876 33.942 54.0813 33.7073 54.1764 33.5425C55.7936 30.6708 57.3958 27.7892 59.003 24.9126C60.3749 22.4554 61.7468 19.9983 63.1287 17.5462C63.2588 17.3114 63.3139 17.1217 63.1687 16.862C61.4714 13.8455 58.9029 12.0326 55.4982 11.4932C52.5341 11.0238 49.7353 11.668 47.1117 13.0914C46.9315 13.1862 46.7612 13.2911 46.591 13.401C45.9351 13.8055 45.9451 13.7955 45.3243 13.3011C41.8345 10.5343 37.9241 8.7714 33.418 8.56165C30.7193 8.4368 28.1558 9.04609 25.7475 10.2647C25.3569 10.4594 25.1717 10.3795 24.9564 10.0399C24.3505 9.10601 23.8348 8.09719 22.9336 7.37803C20.34 5.30545 17.386 4.60627 14.1566 5.25052C9.92578 6.08954 6.87159 8.54167 4.86885 12.3173C3.83243 14.265 3.28167 16.3526 3.48195 18.56C3.77235 21.7363 5.36453 24.1335 8.13833 25.7216C8.54889 25.9563 9.03456 26.0812 9.50019 26.1761C10.1311 26.3059 10.6368 26.0462 10.9622 25.4919C11.518 24.543 11.563 23.4792 11.563 22.4205C11.563 22.3206 11.4328 22.1807 11.3277 22.1208C9.02955 20.7374 7.80287 17.4812 8.75417 14.6645C9.59032 12.1874 12.5494 10.3645 15.1529 10.7641C16.9404 11.0388 18.2322 11.9427 18.9281 13.6357C19.2335 14.3749 19.0933 15.0291 18.5876 15.6334C17.9768 16.3625 17.3309 17.0617 16.7802 17.8308C15.1579 20.0982 14.1516 22.6152 13.8962 25.407C13.5708 28.9528 13.8411 32.4288 15.183 35.7599C16.8152 39.8102 19.7342 42.532 23.8649 43.9303C27.0392 45.0041 30.3187 45.3737 33.6383 44.9442C37.2933 44.4747 40.4876 42.9365 43.1413 40.3495C43.3115 40.1847 43.5018 39.95 43.7121 40.1897C43.7922 40.2796 43.697 40.6392 43.5719 40.769C42.5405 41.8428 41.3338 42.6918 40.042 43.4309C36.2068 45.6184 32.0861 46.0579 27.7852 45.4586C25.6573 45.1589 23.6045 44.6295 21.6719 43.6756C18.4525 42.0825 16.1643 39.6154 14.7624 36.3242C13.3154 32.9282 12.975 29.3674 13.2603 25.7216C13.5608 21.926 15.0478 18.6449 17.6163 15.8431C17.6814 15.7732 17.7365 15.7033 17.7966 15.6284C18.6878 14.5946 18.6778 13.8555 17.7665 12.8067C16.4397 11.2935 14.2417 10.8939 12.299 11.7729C8.1183 13.6557 8.19841 18.8247 11.1775 21.2618C11.2476 21.3217 11.3177 21.4017 11.4028 21.4266C12.1939 21.6863 12.279 22.2956 12.1688 22.9898C12.0537 23.7239 12.0086 24.4831 11.7833 25.1822C11.3327 26.5806 10.2913 27.085 8.88435 26.6705C7.26213 26.1961 6.04045 25.1523 5.00904 23.8738C2.75095 21.072 2.33037 17.8908 3.34676 14.5447C4.78874 9.79022 7.88799 6.50905 12.6645 5.00581C16.2444 3.88212 19.6892 4.30662 22.8234 6.50406C23.7597 7.16329 24.4707 8.01229 25.0365 8.99614C25.1667 9.22587 25.3169 9.44063 25.4671 9.68035C25.5622 9.65038 25.6373 9.6354 25.7024 9.60543C30.4839 7.35306 35.2805 7.47292 40.0971 9.48058C42.1349 10.3296 44.0275 11.4333 45.7298 12.8417C45.9401 13.0115 46.0853 13.0065 46.3006 12.8716C48.4185 11.5881 50.7117 10.854 53.1951 10.7691C56.7149 10.6492 59.749 11.7629 62.1423 14.3948C62.7131 15.0191 63.1787 15.7383 63.7345 16.4674C63.8497 16.2627 63.9648 16.0679 64.075 15.8731C66.7286 11.2136 69.3973 6.55899 72.0309 1.88445C72.6617 0.760761 73.4178 0.825686 74.2088 1.42499C74.8147 1.87945 75.3955 2.39885 75.8711 2.98317C77.1479 4.55133 78.3796 6.15446 79.5812 7.78256C79.7665 8.03726 79.8165 8.52669 79.7114 8.83633C79.3008 10.0899 78.8702 11.3384 78.3345 12.542C77.6035 14.1901 76.7673 15.7882 75.9763 17.4113C75.9112 17.5462 75.8561 17.691 75.7409 17.9657L75.7309 17.9457ZM50.0007 42.3022C50.5865 42.3772 51.0521 42.482 51.5228 42.497C53.3603 42.552 55.1477 42.2373 56.9151 41.7429C58.4272 41.3184 59.9343 40.774 61.4814 40.6092C62.623 40.4844 63.1637 40.0099 63.7195 39.096C66.0977 35.1955 68.5661 31.345 70.9995 27.4746C71.39 26.8503 71.9407 26.4508 72.6167 26.201C72.9822 26.0662 73.3477 25.9264 73.7182 25.8215C76.1465 25.1373 78.5898 24.508 80.9981 23.7539C82.2248 23.3744 83.3914 22.8 84.563 22.2706C85.0637 22.0459 85.3091 21.5964 85.299 21.0171C85.294 20.6475 85.3641 20.273 85.3641 19.9034C85.3641 19.2042 85.3641 18.505 85.289 17.8158C85.2189 17.1616 84.9836 17.0068 84.3477 17.1117C83.1161 17.3114 81.8944 17.5412 80.6677 17.7459C79.0705 18.0156 77.4783 18.3003 75.8761 18.515C75.05 18.6249 74.8647 18.3203 75.2252 17.5661C75.9562 16.0379 76.7473 14.5397 77.4433 12.9915C78.0491 11.648 78.5698 10.2647 79.0805 8.88627C79.1757 8.63656 79.1506 8.22205 79.0004 8.01729C78.0191 6.65388 77.0227 5.30046 75.9562 4.00198C75.3304 3.23787 74.5994 2.54867 73.8484 1.90443C73.2626 1.40501 72.9671 1.50489 72.5916 2.15413C69.7878 7.06839 66.9839 11.9876 64.2001 16.9119C64.1 17.0917 64.115 17.3814 64.1751 17.5961C64.3453 18.1904 64.6107 18.7597 64.7609 19.359C65.532 22.4255 65.3267 25.422 63.8697 28.2487C61.9971 31.8744 59.028 34.0119 54.9224 34.4714C54.4618 34.5213 54.2165 34.6961 54.0062 35.0957C53.4204 36.2094 52.7895 37.2981 52.1737 38.4018C51.4777 39.6503 50.7868 40.8989 50.0107 42.2972L50.0007 42.3022ZM53.5656 34.6012C53.0499 34.4864 52.5742 34.4165 52.1186 34.2766C51.683 34.1418 51.2774 33.9071 51.1773 33.3976C51.0421 32.7134 50.8919 32.0243 50.8318 31.3301C50.6416 29.2125 51.2774 28.7331 52.6643 28.1688C53.7608 27.7243 54.8523 27.2548 55.8938 26.7055C57.2857 25.9663 58.1268 24.8277 58.0167 23.1696C57.9716 22.4904 57.9366 21.7962 57.7813 21.137C57.4909 19.8884 56.9452 18.7597 55.8938 17.9507C54.4318 16.827 52.8045 16.7671 51.1523 17.3764C49.6602 17.9257 48.3384 19.364 49.2697 21.5215C49.3298 21.6663 49.3999 21.8062 49.4449 21.951C49.7503 22.9099 50.1058 23.8588 50.3361 24.8426C50.7517 26.6206 50.5915 28.4284 50.4162 30.2263C50.0157 34.3066 49.2296 38.2769 47.2419 41.9327C46.7162 42.8965 46.2505 43.8954 45.7398 44.9092C45.9151 44.9392 46.0653 44.9691 46.2155 44.9941C47.5824 45.2138 48.9542 45.4236 50.3211 45.6483C53.4254 46.1627 56.4295 45.913 59.3184 44.5896C60.8756 43.8754 61.8119 42.6468 62.4577 41.0737C62.1774 41.0986 61.922 41.0837 61.6867 41.1436C60.445 41.4432 59.2033 41.7229 57.9766 42.0775C56.1591 42.5969 54.3316 43.0714 52.434 43.0913C51.6479 43.1013 50.8468 43.0364 50.0808 42.8716C49.4099 42.7267 49.3047 42.3172 49.6352 41.7129C50.8669 39.4955 52.0986 37.2831 53.3302 35.0707C53.4104 34.9259 53.4855 34.776 53.5706 34.6062L53.5656 34.6012ZM46.556 64.2466C46.3757 64.3365 46.2305 64.3914 46.0953 64.4714C44.4331 65.4502 42.7407 66.3841 41.1185 67.4279C39.2409 68.6315 37.4835 69.9949 35.9865 71.668C35.3406 72.3871 34.7848 73.1662 34.4494 74.0951C33.8536 75.7482 35.5759 77.2215 36.8927 77.0667C37.834 76.9568 38.6601 76.5872 39.4362 76.0928C41.1886 74.9741 42.6206 73.5058 43.9374 71.9227C45.0639 70.5692 46.0903 69.1409 46.8363 67.5378C47.3571 66.4191 47.2519 65.3403 46.556 64.2566V64.2466ZM54.6721 33.9021C58.3271 33.5075 61.0308 31.7945 62.8583 28.788C64.9462 25.357 65.0363 21.7363 63.7095 18.0406C63.6594 18.0256 63.6093 18.0156 63.5643 18.0006C60.6202 23.2645 57.6762 28.5333 54.6771 33.9021H54.6721ZM41.8095 60.0765L41.8495 59.9566C41.7093 59.8468 41.5691 59.7319 41.4289 59.622C40.2223 58.7181 39.0206 57.8041 37.804 56.9152C35.6911 55.372 33.5632 53.8538 31.1499 52.805C30.549 52.5403 29.8831 52.3855 29.2272 52.2906C28.6464 52.2107 28.361 52.5353 28.3861 53.1296C28.4261 54.1284 28.7315 55.0474 29.3324 55.8564C30.3838 57.2798 31.8809 58.0538 33.4931 58.6332C35.3356 59.2974 37.2482 59.622 39.1859 59.8368C40.0571 59.9317 40.9333 59.9916 41.8044 60.0715L41.8095 60.0765ZM44.5933 45.6483C44.5532 45.5684 44.5132 45.4885 44.4731 45.4086C43.8022 45.4735 43.1263 45.4985 42.4654 45.6234C42.22 45.6683 41.8095 45.9929 41.8395 46.1078C41.9296 46.4874 42.1249 46.8869 42.3953 47.1616C42.5154 47.2864 43.0061 47.2315 43.1813 47.0817C43.692 46.6522 44.1276 46.1328 44.5983 45.6483H44.5933Z" fill="white" stroke="url(#paint0_linear_239_9714)" stroke-miterlimit="10"/>
<defs>
<linearGradient id="paint0_linear_239_9714" x1="71.096" y1="-4.24387" x2="-29.2332" y2="120.11" gradientUnits="userSpaceOnUse">
<stop stop-color="#5FC7F9"/>
<stop offset="0.00895537" stop-color="#473BF0"/>
<stop offset="0.427083" stop-color="#6FEDB7"/>
<stop offset="0.90625" stop-color="#FDFF92"/>
</linearGradient>
</defs>
</svg>
